<svg xmlns="http://www.w3.org/2000/svg" viewBox="0 0 100 100" fill="none">
  <!-- Store body -->
  <rect x="18" y="44" width="52" height="38" rx="3" fill="#1a2354"/>
  <!-- Awning top bar -->
  <rect x="14" y="36" width="60" height="10" rx="5" fill="#1a2354"/>
  <!-- Awning scallops -->
  <path d="M14 46 Q20 38 26 46 Q32 38 38 46 Q44 38 50 46 Q56 38 62 46 Q68 38 74 46 Z" fill="#1a2354"/>
  <path d="M14 46 Q20 40 26 46 Q32 40 38 46 Q44 40 50 46 Q56 40 62 46 Q68 40 74 46" fill="none" stroke="#d4748c" stroke-width="3"/>
  <!-- Window left -->
  <rect x="24" y="60" width="10" height="10" rx="1" fill="white"/>
  <!-- Door -->
  <rect x="38" y="60" width="12" height="22" rx="2" fill="white"/>
  <!-- Megaphone -->
  <path d="M68 52 L80 44 L80 68 L68 60 Z" fill="#1a2354"/>
  <rect x="58" y="54" width="12" height="8" rx="2" fill="#1a2354"/>
  <!-- Sound waves -->
  <path d="M82 50 Q88 56 82 62" stroke="#d4748c" stroke-width="3" stroke-linecap="round" fill="none"/>
  <path d="M86 46 Q94 56 86 66" stroke="#d4748c" stroke-width="2.5" stroke-linecap="round" fill="none"/>
</svg>
